HIERARCHY
ROOT Hips
{
	OFFSET 0.000000 0.000000 0.000000
	CHANNELS 6 Xposition Yposition Zposition Zrotation Yrotation Xrotation
	JOINT LHipJoint
	{
		OFFSET 0.000000 0.000000 0.000000
		CHANNELS 3 Zrotation Yrotation Xrotation
		JOINT LeftUpLeg
		{
			OFFSET 0.076937 -0.101296 0.047373
			CHANNELS 3 Zrotation Yrotation Xrotation
			JOINT LeftLeg
			{
				OFFSET 0.138181 -0.379650 0.000000
				CHANNELS 3 Zrotation Yrotation Xrotation
				JOINT LeftFoot
				{
					OFFSET 0.144621 -0.397343 0.000000
					CHANNELS 3 Zrotation Yrotation Xrotation
					JOINT LeftToeBase
					{
						OFFSET 0.008898 -0.024446 0.131094
						CHANNELS 3 Zrotation Yrotation Xrotation
						End Site
						{
							OFFSET 0.000000 0.000000 0.000000
						}
					}
				}
			}
		}
	}
	JOINT RHipJoint
	{
		OFFSET 0.000000 0.000000 0.000000
		CHANNELS 3 Zrotation Yrotation Xrotation
		JOINT RightUpLeg
		{
			OFFSET -0.073689 -0.101296 0.047373
			CHANNELS 3 Zrotation Yrotation Xrotation
			JOINT RightLeg
			{
				OFFSET -0.143511 -0.394292 0.000000
				CHANNELS 3 Zrotation Yrotation Xrotation
				JOINT RightFoot
				{
					OFFSET -0.144963 -0.398282 0.000000
					CHANNELS 3 Zrotation Yrotation Xrotation
					JOINT RightToeBase
					{
						OFFSET -0.009298 -0.025546 0.133386
						CHANNELS 3 Zrotation Yrotation Xrotation
						End Site
						{
							OFFSET 0.000000 0.000000 0.000000
						}
					}
				}
			}
		}
	}
	JOINT LowerBack
	{
		OFFSET 0.000000 0.000000 0.000000
		CHANNELS 3 Zrotation Yrotation Xrotation
		JOINT Spine
		{
			OFFSET 0.001596 0.114897 -0.010915
			CHANNELS 3 Zrotation Yrotation Xrotation
			JOINT Spine1
			{
				OFFSET 0.003201 0.115645 -0.002413
				CHANNELS 3 Zrotation Yrotation Xrotation
				JOINT Neck
				{
					OFFSET 0.000000 0.000000 0.000000
					CHANNELS 3 Zrotation Yrotation Xrotation
					JOINT Neck1
					{
						OFFSET -0.003058 0.098565 0.009709
						CHANNELS 3 Zrotation Yrotation Xrotation
						JOINT Head
						{
							OFFSET 0.005874 0.099418 -0.006997
							CHANNELS 3 Zrotation Yrotation Xrotation
							End Site
							{
								OFFSET 0.000000 0.000000 0.000000
							}
						}
					}
				}
				JOINT LeftShoulder
				{
					OFFSET 0.000000 0.000000 0.000000
					CHANNELS 3 Zrotation Yrotation Xrotation
					JOINT LeftArm
					{
						OFFSET 0.189788 0.067783 -0.017566
						CHANNELS 3 Zrotation Yrotation Xrotation
						JOINT LeftForeArm
						{
							OFFSET 0.281260 -0.000000 -0.000000
							CHANNELS 3 Zrotation Yrotation Xrotation
							JOINT LeftHand
							{
								OFFSET 0.196626 -0.000000 -0.000000
								CHANNELS 3 Zrotation Yrotation Xrotation
								JOINT LeftFingerBase
								{
									OFFSET 0.000000 0.000000 0.000000
									CHANNELS 3 Zrotation Yrotation Xrotation
									JOINT LeftHandIndex1
									{
										OFFSET 0.040372 -0.000000 -0.000000
										CHANNELS 3 Zrotation Yrotation Xrotation
										End Site
										{
											OFFSET 0.000000 0.000000 0.000000
										}
									}
								}
								JOINT LThumb
								{
									OFFSET 0.000000 0.000000 0.000000
									CHANNELS 3 Zrotation Yrotation Xrotation
									End Site
									{
										OFFSET 0.000000 0.000000 0.000000
									}
								}
							}
						}
					}
				}
				JOINT RightShoulder
				{
					OFFSET 0.000000 0.000000 0.000000
					CHANNELS 3 Zrotation Yrotation Xrotation
					JOINT RightArm
					{
						OFFSET -0.177042 0.077557 -0.022840
						CHANNELS 3 Zrotation Yrotation Xrotation
						JOINT RightForeArm
						{
							OFFSET -0.295874 -0.000000 -0.000000
							CHANNELS 3 Zrotation Yrotation Xrotation
							JOINT RightHand
							{
								OFFSET -0.194403 -0.000000 -0.000000
								CHANNELS 3 Zrotation Yrotation Xrotation
								JOINT RightFingerBase
								{
									OFFSET 0.000000 0.000000 0.000000
									CHANNELS 3 Zrotation Yrotation Xrotation
									JOINT RightHandIndex1
									{
										OFFSET -0.035138 -0.000000 -0.000000
										CHANNELS 3 Zrotation Yrotation Xrotation
										End Site
										{
											OFFSET 0.000000 0.000000 0.000000
										}
									}
								}
								JOINT RThumb
								{
									OFFSET 0.000000 0.000000 0.000000
									CHANNELS 3 Zrotation Yrotation Xrotation
									End Site
									{
										OFFSET 0.000000 0.000000 0.000000
									}
								}
							}
						}
					}
				}
			}
		}
	}
}
MOTION
Frames: 7
Frame Time: 0.033333
-42.392217 0.927147 -20.682493 -173.902322 69.779016 -170.656536 -9.008370 25.865883 -3.598159 -28.260806 -16.824553 -21.558789 7.360069 -1.542048 56.803299 38.036031 -27.634520 5.715138 -10.778669 7.597047 -17.724951 -3.840794 -22.185891 -1.325597 16.316508 13.457291 -24.279350 -13.379244 5.706578 39.300273 -28.102956 31.018740 -8.237592 9.645699 -4.593159 -13.485005 -5.982279 2.302617 21.119219 14.169529 3.156207 13.707798 -10.237699 -7.074672 -35.477678 -5.223728 4.181677 -12.280195 2.670496 3.228910 13.588502 -1.446572 1.613689 -5.773568 8.130693 25.709232 -4.091381 -87.567891 -13.768704 69.184658 1.852091 -78.488483 5.898424 8.070865 -16.128825 3.009942 -0.384378 10.746742 0.258585 0.002765 -0.005482 0.015182 0.000826 -0.006874 -0.007852 -11.591354 -41.320979 -0.223752 71.329052 -3.034839 52.999297 11.521249 58.062229 17.978527 -4.003667 20.027691 6.692026 3.929298 -11.185122 -0.300366 -0.042157 -0.039888 0.056359 0.000268 -0.004378 0.004134 
-42.380582 0.914992 -20.669729 -175.497077 62.274778 -172.332281 -9.703377 27.294751 -4.152179 -28.375204 -17.764218 -24.735720 7.888966 -1.975376 60.112592 35.372727 -26.120454 6.807553 -11.241506 8.042246 -17.774194 -2.933028 -22.139665 -2.446607 15.381856 9.960805 -22.966174 -12.753112 3.384371 44.113164 -27.988725 32.315789 -12.348981 10.908835 -5.344444 -15.135007 -5.330688 0.547864 23.599751 12.100753 1.190413 13.979381 -6.926234 -7.209652 -36.649950 -3.071195 -6.780267 -12.275038 -0.263661 -6.820290 12.825989 -3.130518 -1.360863 -6.017206 7.466554 30.139171 -5.000967 -86.389267 -12.199787 68.295355 -1.598194 -78.958491 8.060066 9.135803 -16.753279 4.870466 -0.542793 11.216098 0.309399 0.007150 -0.007802 0.014264 0.002923 -0.009492 -0.012132 -10.718087 -35.924701 -0.662147 72.609791 -1.652023 53.766159 10.423174 55.114957 16.334155 -3.026546 18.783003 5.036718 4.231308 -11.323484 -0.274532 -0.042400 -0.035451 0.057855 0.001432 -0.003845 0.002123 
-42.374685 0.911251 -20.658122 -176.433489 55.037877 -173.662725 -9.909258 28.759567 -4.507745 -29.157662 -18.084334 -26.265762 8.023783 -2.249099 61.013064 33.804317 -22.589010 6.699178 -10.949762 7.669709 -17.276937 -2.397849 -23.342826 -3.247682 14.609645 5.577429 -21.721388 -12.209612 0.783827 47.483593 -27.451572 29.419581 -16.361199 11.000283 -5.877341 -15.383906 -4.814779 -0.017311 26.482589 10.953506 0.496169 14.784369 -5.812914 -6.742170 -37.419945 -2.413356 -12.073810 -12.120620 -1.968250 -11.656262 12.274567 -4.000899 -2.482522 -6.600848 6.908366 31.654542 -4.803756 -85.947917 -10.677011 66.200602 -7.516026 -78.205404 12.582731 10.039945 -17.602826 6.741421 -0.969959 11.793982 0.315227 0.010271 -0.007466 0.014175 0.004123 -0.012173 -0.013566 -9.918830 -32.870178 -1.634692 74.231685 -0.296935 53.065084 8.701852 50.655959 15.338474 -3.441961 19.902927 5.068668 3.704775 -12.640355 -0.161392 -0.041157 -0.029401 0.054565 -0.000381 -0.003033 0.000717 
-42.372947 0.912730 -20.648547 -177.137106 48.021661 -174.522791 -9.863337 29.599878 -4.858332 -29.868484 -17.782243 -26.565751 7.354918 -1.737956 59.723117 33.408197 -19.621354 4.909531 -10.250389 7.130068 -16.087959 -2.146291 -24.638374 -3.765191 14.516538 1.279233 -19.628017 -11.590316 -1.004682 47.659097 -27.967683 26.803737 -18.183331 10.717801 -6.129364 -15.054094 -4.802973 0.135846 28.313484 10.655138 0.760803 15.222658 -6.116178 -6.159493 -37.190294 -2.586290 -12.921953 -11.809626 -2.439951 -12.489716 11.644697 -4.223301 -2.495105 -7.327752 6.334180 31.037687 -4.533396 -85.248402 -10.984058 63.684412 -9.577954 -76.143073 14.407574 10.843476 -18.077023 8.017631 -0.865919 12.309189 0.313837 0.010090 -0.007564 0.014014 0.005275 -0.013744 -0.014067 -9.432602 -31.347975 -2.228762 75.175974 1.415744 52.476238 7.836792 46.917304 15.744747 -4.067886 19.933733 5.727717 3.352619 -13.399077 -0.082158 -0.039515 -0.027587 0.048382 -0.002833 -0.001087 -0.000223 
-42.373086 0.916259 -20.641908 -177.847422 41.463483 -175.173190 -9.604304 29.753462 -4.975577 -29.660834 -17.085752 -26.902454 5.897070 -0.548957 57.136119 32.221282 -15.882575 2.960415 -9.057667 6.572918 -14.113965 -2.368284 -25.537904 -3.601010 14.913170 -1.797306 -17.042604 -10.608785 -2.338464 45.342614 -28.379593 23.483510 -17.564966 10.160472 -5.819781 -14.425899 -4.533431 0.487319 28.954528 9.964799 1.344075 15.186883 -6.874445 -5.121668 -36.022996 -3.231371 -10.881477 -11.419396 -1.937707 -10.651956 10.503304 -3.972437 -1.674888 -8.433290 5.681606 29.272571 -3.740425 -83.924186 -11.856596 60.896163 -9.120046 -73.539422 15.039749 11.403096 -18.507731 9.503897 -1.049530 12.856149 0.318020 0.008505 -0.008479 0.012298 0.006498 -0.013287 -0.015459 -8.543674 -30.580249 -2.247286 74.859456 3.036883 53.384684 7.216210 45.338600 16.504453 -4.629900 19.655041 6.725326 3.372328 -13.828700 -0.049967 -0.036802 -0.029221 0.041664 -0.004240 0.001864 -0.000159 
-42.373615 0.920414 -20.638244 -178.505999 35.703630 -175.401494 -9.446173 29.115115 -5.058586 -28.126339 -15.909141 -27.649284 4.325833 1.193418 53.922633 30.142054 -10.463652 0.634842 -7.418706 5.633992 -12.028524 -2.912724 -25.783455 -3.067179 15.357644 -3.680753 -14.508313 -9.585700 -3.517846 41.407143 -28.224490 18.849093 -15.722951 9.246174 -5.519231 -13.429643 -4.397770 0.890728 28.858031 8.540577 1.709717 14.174671 -6.345737 -4.358105 -33.729488 -3.588803 -9.879832 -11.085424 -1.749404 -9.531918 9.634532 -3.801234 -0.723478 -9.267469 4.856614 27.734553 -3.352969 -82.001026 -12.968003 57.683093 -7.848898 -69.858905 16.094106 11.650028 -18.711829 10.323728 -1.317374 13.252679 0.365831 0.006860 -0.010753 0.011965 0.007944 -0.011098 -0.017506 -7.011642 -28.650242 -1.612503 73.728500 4.398972 54.566199 6.408709 44.236180 17.403252 -5.322492 19.330399 7.940421 3.354989 -14.200661 -0.051397 -0.034094 -0.032525 0.035896 -0.004114 0.004705 -0.001411 
-42.373867 0.923731 -20.637942 -178.959259 30.266818 -175.410096 -9.648775 28.262794 -5.603626 -26.158843 -14.343298 -28.192223 4.654468 3.126762 52.279448 28.382264 -5.041564 -2.127044 -6.261017 5.115091 -11.181118 -3.332287 -26.645267 -2.683625 16.054855 -5.160857 -12.327621 -9.051913 -4.714671 38.388052 -26.970806 15.092000 -15.766074 8.877404 -5.453911 -13.098641 -4.222335 1.761372 29.141882 6.959489 2.159933 12.558005 -5.818007 -3.312208 -31.083434 -4.200165 -6.290559 -11.192163 -0.820617 -6.124744 8.460917 -3.241452 0.777826 -9.993835 4.391572 25.185486 -3.256825 -80.288741 -14.119472 56.727913 -5.224391 -65.859547 14.770587 11.135771 -18.865888 10.142801 -1.871605 13.382196 0.380832 0.003812 -0.011634 0.013604 0.009078 -0.009556 -0.015691 -5.423519 -27.751587 -0.619561 72.108197 5.112947 53.147074 4.877297 43.375508 16.720267 -5.487792 18.515117 8.099341 3.047857 -14.286564 -0.053319 -0.032932 -0.035543 0.031898 -0.005089 0.005310 -0.001310 
